<svg width="1920" height="1080" viewBox="0 0 1920 1080" fill="none" xmlns="http://www.w3.org/2000/svg">
<path d="M-56.2907 826.636L74.303 755.958M-56.2907 826.636L44.3449 856.594L74.303 755.958M-56.2907 826.636L-162 1181.74L136.552 1270.61L272.22 814.876L74.303 755.958" stroke="#293973" stroke-width="6"/>
<path d="M730.709 826.636L861.303 755.958M730.709 826.636L831.345 856.594L861.303 755.958M730.709 826.636L625 1181.74L923.552 1270.61L1059.22 814.876L861.303 755.958" stroke="#293973" stroke-width="6"/>
<path d="M1496.71 826.636L1627.3 755.958M1496.71 826.636L1597.34 856.594L1627.3 755.958M1496.71 826.636L1391 1181.74L1689.55 1270.61L1825.22 814.876L1627.3 755.958" stroke="#293973" stroke-width="6"/>
<path d="M336.709 826.636L467.303 755.958M336.709 826.636L437.345 856.594L467.303 755.958M336.709 826.636L231 1181.74L529.552 1270.61L665.22 814.876L467.303 755.958" stroke="#293973" stroke-width="6"/>
<path d="M1114.71 826.636L1245.3 755.958M1114.71 826.636L1215.34 856.594L1245.3 755.958M1114.71 826.636L1009 1181.74L1307.55 1270.61L1443.22 814.876L1245.3 755.958" stroke="#293973" stroke-width="6"/>
<path d="M1880.71 826.636L2011.3 755.958M1880.71 826.636L1981.34 856.594L2011.3 755.958M1880.71 826.636L1775 1181.74L2073.55 1270.61L2209.22 814.876L2011.3 755.958" stroke="#293973" stroke-width="6"/>
<path d="M-238.291 317.636L-107.697 246.958M-238.291 317.636L-137.655 347.594L-107.697 246.958M-238.291 317.636L-344 672.735L-45.448 761.611L90.2196 305.876L-107.697 246.958" stroke="#293973" stroke-width="6"/>
<path d="M548.709 317.636L679.303 246.958M548.709 317.636L649.345 347.594L679.303 246.958M548.709 317.636L443 672.735L741.552 761.611L877.22 305.876L679.303 246.958" stroke="#293973" stroke-width="6"/>
<path d="M1314.71 317.636L1445.3 246.958M1314.71 317.636L1415.34 347.594L1445.3 246.958M1314.71 317.636L1209 672.735L1507.55 761.611L1643.22 305.876L1445.3 246.958" stroke="#293973" stroke-width="6"/>
<path d="M152.709 317.636L283.303 246.958M152.709 317.636L253.345 347.594L283.303 246.958M152.709 317.636L46.9999 672.735L345.552 761.611L481.22 305.876L283.303 246.958" stroke="#293973" stroke-width="6"/>
<path d="M932.709 317.636L1063.3 246.958M932.709 317.636L1033.34 347.594L1063.3 246.958M932.709 317.636L827 672.735L1125.55 761.611L1261.22 305.876L1063.3 246.958" stroke="#293973" stroke-width="6"/>
<path d="M1698.71 317.636L1829.3 246.958M1698.71 317.636L1799.34 347.594L1829.3 246.958M1698.71 317.636L1593 672.735L1891.55 761.611L2027.22 305.876L1829.3 246.958" stroke="#293973" stroke-width="6"/>
<path d="M-46.2907 -181.364L84.303 -252.042M-46.2907 -181.364L54.3449 -151.406L84.303 -252.042M-46.2907 -181.364L-152 173.735L146.552 262.611L282.22 -193.124L84.303 -252.042" stroke="#293973" stroke-width="6"/>
<path d="M740.709 -181.364L871.303 -252.042M740.709 -181.364L841.345 -151.406L871.303 -252.042M740.709 -181.364L635 173.735L933.552 262.611L1069.22 -193.124L871.303 -252.042" stroke="#293973" stroke-width="6"/>
<path d="M1506.71 -181.364L1637.3 -252.042M1506.71 -181.364L1607.34 -151.406L1637.3 -252.042M1506.71 -181.364L1401 173.735L1699.55 262.611L1835.22 -193.124L1637.3 -252.042" stroke="#293973" stroke-width="6"/>
<path d="M344.709 -181.364L475.303 -252.042M344.709 -181.364L445.345 -151.406L475.303 -252.042M344.709 -181.364L239 173.735L537.552 262.611L673.22 -193.124L475.303 -252.042" stroke="#293973" stroke-width="6"/>
<path d="M1124.71 -181.364L1255.3 -252.042M1124.71 -181.364L1225.34 -151.406L1255.3 -252.042M1124.71 -181.364L1019 173.735L1317.55 262.611L1453.22 -193.124L1255.3 -252.042" stroke="#293973" stroke-width="6"/>
<path d="M1890.71 -181.364L2021.3 -252.042M1890.71 -181.364L1991.34 -151.406L2021.3 -252.042M1890.71 -181.364L1785 173.735L2083.55 262.611L2219.22 -193.124L2021.3 -252.042" stroke="#293973" stroke-width="6"/>
</svg>
