<svg width="1920" height="1080" viewBox="0 0 1920 1080" fill="none" xmlns="http://www.w3.org/2000/svg">
<path d="M337.375 791.937L134.347 901.466L-68.6816 791.937L134.347 682.408L337.375 791.937Z" stroke="#191844" stroke-width="6"/>
<path d="M205.214 756.742L79.8727 825.242L62.2448 815.523L187.904 747.3L205.214 756.742Z" stroke="#191844" stroke-width="6"/>
<path d="M133.735 904.874V1302.45" stroke="#191844" stroke-width="6" stroke-linecap="round"/>
<path d="M341.246 792.243V1189.82" stroke="#191844" stroke-width="6" stroke-linecap="round"/>
<path d="M806.375 791.937L603.347 901.466L400.318 791.937L603.347 682.408L806.375 791.937Z" stroke="#191844" stroke-width="6"/>
<path d="M674.214 756.742L548.873 825.242L531.245 815.523L656.904 747.3L674.214 756.742Z" stroke="#191844" stroke-width="6"/>
<path d="M396.142 792.549V1190.12" stroke="#191844" stroke-width="6" stroke-linecap="round"/>
<path d="M602.735 904.874V1302.45" stroke="#191844" stroke-width="6" stroke-linecap="round"/>
<path d="M810.246 792.243V1189.82" stroke="#191844" stroke-width="6" stroke-linecap="round"/>
<path d="M1275.38 791.937L1072.35 901.466L869.318 791.937L1072.35 682.408L1275.38 791.937Z" stroke="#191844" stroke-width="6"/>
<path d="M1143.21 756.742L1017.87 825.242L1000.24 815.523L1125.9 747.3L1143.21 756.742Z" stroke="#191844" stroke-width="6"/>
<path d="M865.142 792.549V1190.12" stroke="#191844" stroke-width="6" stroke-linecap="round"/>
<path d="M1071.73 904.874V1302.45" stroke="#191844" stroke-width="6" stroke-linecap="round"/>
<path d="M1279.25 792.243V1189.82" stroke="#191844" stroke-width="6" stroke-linecap="round"/>
<path d="M1744.38 791.937L1541.35 901.466L1338.32 791.937L1541.35 682.408L1744.38 791.937Z" stroke="#191844" stroke-width="6"/>
<path d="M1612.21 756.742L1486.87 825.242L1469.24 815.523L1594.9 747.3L1612.21 756.742Z" stroke="#191844" stroke-width="6"/>
<path d="M1334.14 792.549V1190.12" stroke="#191844" stroke-width="6" stroke-linecap="round"/>
<path d="M1540.73 904.874V1302.45" stroke="#191844" stroke-width="6" stroke-linecap="round"/>
<path d="M1748.25 792.243V1189.82" stroke="#191844" stroke-width="6" stroke-linecap="round"/>
<path d="M98.375 233.937L-104.653 343.466L-307.682 233.937L-104.653 124.408L98.375 233.937Z" stroke="#191844" stroke-width="6"/>
<path d="M103.47 631.513L-105.265 744.144L-314 631.513" stroke="#191844" stroke-width="6"/>
<path d="M102.246 234.243V631.819" stroke="#191844" stroke-width="6" stroke-linecap="round"/>
<path d="M567.375 233.937L364.347 343.466L161.318 233.937L364.347 124.408L567.375 233.937Z" stroke="#191844" stroke-width="6"/>
<path d="M435.214 198.742L309.873 267.242L292.245 257.523L417.904 189.3L435.214 198.742Z" stroke="#191844" stroke-width="6"/>
<path d="M572.47 631.513L363.735 744.144L155 631.513" stroke="#191844" stroke-width="6"/>
<path d="M157.142 234.549V632.125" stroke="#191844" stroke-width="6" stroke-linecap="round"/>
<path d="M363.735 346.874V744.45" stroke="#191844" stroke-width="6" stroke-linecap="round"/>
<path d="M571.246 234.243V631.819" stroke="#191844" stroke-width="6" stroke-linecap="round"/>
<path d="M1036.38 233.937L833.347 343.466L630.318 233.937L833.347 124.408L1036.38 233.937Z" stroke="#191844" stroke-width="6"/>
<path d="M904.214 198.742L778.873 267.242L761.245 257.523L886.904 189.3L904.214 198.742Z" stroke="#191844" stroke-width="6"/>
<path d="M1041.47 631.513L832.735 744.144L624 631.513" stroke="#191844" stroke-width="6"/>
<path d="M626.142 234.549V632.125" stroke="#191844" stroke-width="6" stroke-linecap="round"/>
<path d="M832.735 346.874V744.45" stroke="#191844" stroke-width="6" stroke-linecap="round"/>
<path d="M1040.25 234.243V631.819" stroke="#191844" stroke-width="6" stroke-linecap="round"/>
<path d="M1505.38 233.937L1302.35 343.466L1099.32 233.937L1302.35 124.408L1505.38 233.937Z" stroke="#191844" stroke-width="6"/>
<path d="M1373.21 198.742L1247.87 267.242L1230.24 257.523L1355.9 189.3L1373.21 198.742Z" stroke="#191844" stroke-width="6"/>
<path d="M1510.47 631.513L1301.73 744.144L1093 631.513" stroke="#191844" stroke-width="6"/>
<path d="M1095.14 234.549V632.125" stroke="#191844" stroke-width="6" stroke-linecap="round"/>
<path d="M1301.73 346.874V744.45" stroke="#191844" stroke-width="6" stroke-linecap="round"/>
<path d="M1509.25 234.243V631.819" stroke="#191844" stroke-width="6" stroke-linecap="round"/>
<path d="M336.47 73.5127L127.735 186.144L-81 73.5127" stroke="#191844" stroke-width="6"/>
<path d="M127.735 -211.126V186.45" stroke="#191844" stroke-width="6" stroke-linecap="round"/>
<path d="M335.246 -323.757V73.8187" stroke="#191844" stroke-width="6" stroke-linecap="round"/>
<path d="M805.47 73.5127L596.735 186.144L388 73.5127" stroke="#191844" stroke-width="6"/>
<path d="M390.142 -323.451V74.1248" stroke="#191844" stroke-width="6" stroke-linecap="round"/>
<path d="M596.735 -211.126V186.45" stroke="#191844" stroke-width="6" stroke-linecap="round"/>
<path d="M804.246 -323.757V73.8187" stroke="#191844" stroke-width="6" stroke-linecap="round"/>
<path d="M1274.47 73.5127L1065.73 186.144L857 73.5127" stroke="#191844" stroke-width="6"/>
<path d="M859.142 -323.451V74.1248" stroke="#191844" stroke-width="6" stroke-linecap="round"/>
<path d="M1065.73 -211.126V186.45" stroke="#191844" stroke-width="6" stroke-linecap="round"/>
<path d="M1273.25 -323.757V73.8187" stroke="#191844" stroke-width="6" stroke-linecap="round"/>
<path d="M1743.47 73.5127L1534.73 186.144L1326 73.5127" stroke="#191844" stroke-width="6"/>
<path d="M1328.14 -323.451V74.1248" stroke="#191844" stroke-width="6" stroke-linecap="round"/>
<path d="M1534.73 -211.126V186.45" stroke="#191844" stroke-width="6" stroke-linecap="round"/>
<path d="M1742.25 -323.757V73.8187" stroke="#191844" stroke-width="6" stroke-linecap="round"/>
<path d="M2213.38 791.937L2010.35 901.466L1807.32 791.937L2010.35 682.408L2213.38 791.937Z" stroke="#191844" stroke-width="6"/>
<path d="M1803.14 792.549V1190.12" stroke="#191844" stroke-width="6" stroke-linecap="round"/>
<path d="M1974.38 233.937L1771.35 343.466L1568.32 233.937L1771.35 124.408L1974.38 233.937Z" stroke="#191844" stroke-width="6"/>
<path d="M1842.21 198.742L1716.87 267.242L1699.24 257.523L1824.9 189.3L1842.21 198.742Z" stroke="#191844" stroke-width="6"/>
<path d="M1979.47 631.513L1770.73 744.144L1562 631.513" stroke="#191844" stroke-width="6"/>
<path d="M1564.14 234.549V632.125" stroke="#191844" stroke-width="6" stroke-linecap="round"/>
<path d="M1770.73 346.874V744.45" stroke="#191844" stroke-width="6" stroke-linecap="round"/>
<path d="M2212.47 73.5127L2003.73 186.144L1795 73.5127" stroke="#191844" stroke-width="6"/>
<path d="M1797.14 -323.451V74.1248" stroke="#191844" stroke-width="6" stroke-linecap="round"/>
</svg>
