<svg width="282" height="283" viewBox="0 0 282 283" fill="none" xmlns="http://www.w3.org/2000/svg">
<path fill-rule="evenodd" clip-rule="evenodd" d="M176.018 103.796L125.976 153.631L105.13 132.87C102.917 130.669 99.9171 129.432 96.7893 129.433C93.6615 129.435 90.6622 130.673 88.4513 132.876C86.2404 135.08 84.9989 138.067 85 141.182C85.0011 144.297 86.2447 147.284 88.4572 149.486L116.803 177.715C118.007 178.915 119.437 179.867 121.011 180.516C122.585 181.166 124.273 181.5 125.976 181.5C127.68 181.5 129.367 181.166 130.941 180.516C132.515 179.867 133.945 178.915 135.15 177.715L192.69 120.4C194.838 118.185 196.026 115.219 196 112.14C195.973 109.062 194.733 106.116 192.546 103.939C190.36 101.762 187.403 100.527 184.311 100.5C181.22 100.474 178.241 101.657 176.018 103.796Z" fill="#2AAC5A"/>
<circle cx="141" cy="141.5" r="129" stroke="#2AAC5A" stroke-width="24"/>
</svg>
