<svg width="48" height="83" viewBox="0 0 48 83" fill="none" xmlns="http://www.w3.org/2000/svg">
<path fill-rule="evenodd" clip-rule="evenodd" d="M1.83252 45.9841C0.65916 44.815 0 43.2296 0 41.5766C0 39.9236 0.65916 38.3382 1.83252 37.1691L37.2391 1.90318C37.8165 1.30777 38.5071 0.832842 39.2708 0.506122C40.0344 0.179402 40.8557 0.00742831 41.6867 0.000235375C42.5178 -0.00695756 43.3419 0.150776 44.1111 0.464229C44.8803 0.777682 45.5791 1.24058 46.1668 1.82591C46.7545 2.41124 47.2192 3.10728 47.5339 3.87342C47.8486 4.63956 48.007 5.46046 47.9998 6.28821C47.9925 7.11596 47.8199 7.93399 47.4919 8.69457C47.1638 9.45515 46.687 10.143 46.0892 10.7181L15.1077 41.5766L46.0892 72.4351C47.2293 73.6109 47.8602 75.1856 47.8459 76.8201C47.8317 78.4547 47.1734 80.0182 46.013 81.1741C44.8525 82.3299 43.2827 82.9856 41.6417 82.9998C40.0006 83.014 38.4196 82.3856 37.2391 81.25L1.83252 45.9841Z" fill="white"/>
</svg>
