<svg width="48" height="83" viewBox="0 0 48 83" fill="none" xmlns="http://www.w3.org/2000/svg">
<path fill-rule="evenodd" clip-rule="evenodd" d="M46.1675 45.9841C47.3408 44.815 48 43.2296 48 41.5766C48 39.9236 47.3408 38.3382 46.1675 37.1691L10.7609 1.90318C10.1835 1.30777 9.49286 0.832842 8.72925 0.506122C7.96564 0.179402 7.14434 0.00742831 6.31329 0.000235375C5.48223 -0.00695756 4.65807 0.150776 3.88887 0.464229C3.11967 0.777682 2.42085 1.24058 1.83319 1.82591C1.24552 2.41124 0.780781 3.10728 0.466076 3.87342C0.151371 4.63956 -0.00698853 5.46046 0.000236511 6.28821C0.00745773 7.11596 0.180115 7.93399 0.508141 8.69457C0.836163 9.45515 1.31298 10.143 1.91077 10.7181L32.8923 41.5766L1.91077 72.4351C0.770657 73.6109 0.139793 75.1856 0.154053 76.8201C0.168316 78.4547 0.826557 80.0182 1.98701 81.1741C3.14746 82.3299 4.71727 82.9856 6.35834 82.9998C7.9994 83.014 9.58042 82.3856 10.7609 81.25L46.1675 45.9841Z" fill="white"/>
</svg>
